<svg width="360" height="494" viewBox="0 0 360 494" fill="none" xmlns="http://www.w3.org/2000/svg">
<path fill-rule="evenodd" clip-rule="evenodd" d="M180.013 0C174.045 0 168.323 2.36574 164.103 6.57678C159.884 10.7878 157.513 16.4992 157.513 22.4545V66.3981C156.816 74.2572 155.961 82.1163 155.061 89.9529C150.054 90.4991 145.375 92.7063 141.774 96.2211C138.173 99.7359 135.858 104.355 135.2 109.339C134.541 114.322 135.577 119.382 138.142 123.709C140.707 128.035 144.652 131.377 149.346 133.2L147.929 142.497C141.742 182.061 132.382 229.396 119.085 269.455H112.515C107.482 269.453 102.593 271.136 98.6314 274.234C94.6694 277.332 91.8628 281.667 90.6604 286.545C89.4579 291.423 89.929 296.562 91.9984 301.141C94.0679 305.72 97.616 309.475 102.076 311.804C98.0707 320.247 93.7508 328.6 89.251 336.818H67.5168C61.9871 336.799 56.644 338.813 52.5074 342.475C48.3708 346.138 45.7305 351.192 45.0905 356.674C44.4506 362.156 45.8558 367.68 49.0378 372.194C52.2199 376.707 56.956 379.893 62.342 381.143C45.0177 407.37 26.2758 433.013 5.5766 456.748C2.7262 459.995 0.873936 463.993 0.241669 468.263C-0.390599 472.533 0.223936 476.895 2.01163 480.826C3.79932 484.757 6.68438 488.09 10.3214 490.427C13.9584 492.763 18.1931 494.004 22.5185 494H112.515C116.323 494.001 120.069 493.037 123.402 491.199C126.735 489.361 129.546 486.709 131.572 483.491L132.944 480.954C135.968 474.973 139.933 469.514 144.689 464.787C152.924 456.366 164.331 449.091 180.013 449.091C195.695 449.091 207.102 456.366 215.336 464.787C219.096 468.582 222.389 472.811 225.146 477.384L227.081 480.954C228.882 484.849 231.763 488.147 235.383 490.459C239.004 492.771 243.212 494 247.51 494H337.507C341.833 493.999 346.066 492.753 349.701 490.412C353.335 488.071 356.217 484.734 358 480.801C359.783 476.868 360.392 472.505 359.754 468.235C359.116 463.965 357.259 459.969 354.404 456.725C333.727 432.969 315.03 407.393 297.683 381.143C303.069 379.893 307.805 376.707 310.987 372.194C314.169 367.68 315.575 362.156 314.935 356.674C314.295 351.192 311.654 346.138 307.518 342.475C303.381 338.813 298.038 336.799 292.508 336.818H270.774C266.274 328.6 261.955 320.224 257.95 311.804C262.409 309.475 265.957 305.72 268.027 301.141C270.096 296.562 270.567 291.423 269.365 286.545C268.162 281.667 265.356 277.332 261.394 274.234C257.432 271.136 252.543 269.453 247.51 269.455H240.94C229.128 233.864 220.399 192.48 214.279 155.947L210.679 133.2C215.373 131.377 219.318 128.035 221.883 123.709C224.448 119.382 225.484 114.322 224.825 109.339C224.167 104.355 221.852 99.7359 218.251 96.2211C214.65 92.7063 209.971 90.4991 204.964 89.9529C204.064 82.0938 203.209 74.2347 202.489 66.3756V22.4545C202.489 16.4992 200.119 10.7878 195.899 6.57678C191.68 2.36574 185.98 0 180.013 0ZM115.215 381.727H244.81C258.971 404.934 274.289 427.417 290.709 449.091H260.335C257.185 444.443 252.932 438.941 247.51 433.395C233.786 419.361 211.444 404.182 180.013 404.182C148.581 404.182 126.24 419.361 112.515 433.395C107.07 438.941 102.84 444.443 99.6906 449.091H69.3167C85.737 427.418 101.056 404.935 115.215 381.727ZM150.246 314.364H209.779L214.774 325.658L220.084 336.818H139.942L145.251 325.658L150.246 314.364ZM180.013 215.945C182.969 229.466 186.285 242.906 189.957 256.251L193.737 269.455H166.243C171.488 251.796 176.066 233.947 179.968 215.945H180.013Z" fill="#FFB37B"/>
</svg>
