<svg version="1.2" xmlns="http://www.w3.org/2000/svg" viewBox="0 0 1080 1920" width="1080" height="1920">
	<g id="&lt;Group&gt;">
		<path id="&lt;Compound Path&gt;" fill-rule="evenodd" class="s0" d="m425.3 522.6c0-6.5 5.2-11.7 11.6-11.7h17c0-43.3 32.4-79.2 74.2-84.9v-384.4c0-6.4 5.2-11.6 11.6-11.6 6.4 0 11.7 5.2 11.7 11.6v384.4c41.8 5.7 74.1 41.6 74.1 84.9h17c6.4 0 11.6 5.2 11.6 11.7 0 6.4-5.2 11.6-11.6 11.6h-205.6c-6.4 0-11.6-5.2-11.6-11.6zm51.2-11.7h126.4c0-34.8-28.4-63.2-63.2-63.2-34.8 0-63.2 28.4-63.2 63.2z"/>
		<path id="&lt;Path&gt;" class="s0" d="m383.6 560.3c0-1.5 1.3-2.8 2.8-2.8h306.6c1.5 0 2.8 1.3 2.8 2.8v17.7c0 1.6-1.3 2.8-2.8 2.8h-306.6c-1.5 0-2.8-1.2-2.8-2.8z"/>
		<path id="&lt;Compound Path&gt;" fill-rule="evenodd" class="s0" d="m850.4 1715.2c0 6.5-5.2 11.7-11.6 11.7h-598.1c-6.5 0-11.7-5.2-11.7-11.7 0-6.4 5.2-11.6 11.7-11.6h212.1l15.1-812.4-132.2-217.2h-7.8c-6.4 0-11.6-5.2-11.6-11.6 0-6.5 5.2-11.7 11.6-11.7h24.9v-34.9c0-6.5 5.2-11.7 11.7-11.7h350.4c6.5 0 11.7 5.2 11.7 11.7v34.9h24.9c6.4 0 11.6 5.2 11.6 11.7 0 6.4-5.2 11.6-11.6 11.6h-7.8l-132.2 217.2 15.1 812.4h212.2c6.4 0 11.6 5.2 11.6 11.6zm-305.2-916.8l28.6-46.9-34.1-56-34.1 56 28.6 46.9zm-53.3-24.5l-14.9 24.5h29.8zm80.5 24.5h29.9l-14.9-24.5zm68.1 0l28.5-46.7-34-56.2-34.1 56 28.5 46.9zm-86.7-124.4l33.5 55.1 33.5-55.1zm-95.4 0l33.5 55.1 33.6-55.1zm-14.2 21.5l-34.1 56 28.5 46.9h11.1l28.6-46.9zm8.6 126.3l28.4 46.6h116.8l28.4-46.6zm37.8 93.2h97.9l-0.4-23.3h-97zm225.6-241h-67.1l33.5 55.3zm-340.3-23.3h327.2v-23.3h-327.2zm-13.1 23.3l33.5 55.1 33.6-55.1zm113.1 1029.5h127.1l-14.2-765.3h-98.7z"/>
		<path id="&lt;Compound Path&gt;" fill-rule="evenodd" class="s0" d="m820 1761.8c0 6.5-5.2 11.7-11.6 11.7h-9.8l-22.5 93.2h7.4c6.4 0 11.6 5.2 11.6 11.6 0 6.5-5.2 11.7-11.6 11.7h-487.5c-6.5 0-11.7-5.2-11.7-11.7 0-6.4 5.2-11.6 11.7-11.6h7.3l-22.5-93.2h-9.8c-6.4 0-11.6-5.2-11.6-11.7 0-6.4 5.2-11.6 11.6-11.6h537.4c6.4 0 11.6 5.2 11.6 11.6zm-65.3 94.6l8.7-36.3h-30.7zm-42.9-25.9l-21.8 36.2h43.7zm-20.9-10.5h-44.3l22.2 36.6zm-65.2 10.5l-21.8 36.1h43.7zm-20.9-10.5h-44.3l22.1 36.6zm-65.1 10.5l-21.9 36.1h43.7zm-20.9-10.4h-44.2l22.1 36.6zm-65.1 10.4l-21.9 36.2h43.7zm-20.9-10.5h-44.2l22.1 36.6zm-65.2 10.5l-21.8 36.1h43.7zm-20.9-10.5h-30.7l8.7 36.3zm427.9-46.6h-469.8l5.6 23.3h458.6z"/>
		<path id="&lt;Path&gt;" class="s0" d="m539.7 1381.9c-6.4 0-11.6 5.1-11.6 11.6v195.9c0 6.4 5.2 11.6 11.6 11.6 6.4 0 11.6-5.2 11.6-11.6v-195.9c0-6.5-5.2-11.6-11.6-11.6z"/>
		<path id="&lt;Path&gt;" class="s0" d="m539.7 1049.1c-6.4 0-11.6 5.2-11.6 11.6v196c0 6.4 5.2 11.6 11.6 11.6 6.4 0 11.6-5.2 11.6-11.6v-196c0-6.4-5.2-11.6-11.6-11.6z"/>
	</g>
</svg>